<?xml version="1.0" encoding="utf-8"?>
<!-- Generator: Adobe Illustrator 25.2.3, SVG Export Plug-In . SVG Version: 6.00 Build 0)  -->
<svg version="1.1" id="Layer_3" xmlns="http://www.w3.org/2000/svg" xmlns:xlink="http://www.w3.org/1999/xlink" x="0px" y="0px"
	 viewBox="0 0 64 64" style="enable-background:new 0 0 64 64;" xml:space="preserve">
<g>
	<path d="M62.7,7.3l-6-6C56.5,1.1,56.3,1,56,1H26c-0.6,0-1,0.4-1,1v23h-7.9l-1.4-1.6C15.6,23.1,15.3,23,15,23H2c-0.6,0-1,0.4-1,1v38
		c0,0.6,0.4,1,1,1h50c0.6,0,1-0.4,1-1V51h9c0.6,0,1-0.4,1-1V8C63,7.7,62.9,7.5,62.7,7.3z M55,3l0,5c0,0.6,0.4,1,1,1l5,0v14H27V3H55z
		 M57,4.4L59.6,7L57,7L57,4.4z M61,25v14H27V25H61z M25,27v2h-4.5l-1.7-2H25z M3,61v-4h48v4H3z M51,55H3V25h11.5l4.7,5.6
		c0.2,0.2,0.5,0.4,0.8,0.4h5v19c0,0.6,0.4,1,1,1h25V55z M27,49v-8h34v8H27z"/>
	<path d="M35,37v-3h1.5c1.9,0,3.5-1.6,3.5-3.5S38.4,27,36.5,27H34c-0.6,0-1,0.4-1,1v9H35z M35,29h1.5c0.8,0,1.5,0.7,1.5,1.5
		S37.3,32,36.5,32H35V29z"/>
	<path d="M52,34h1.5c1.9,0,3.5-1.6,3.5-3.5S55.4,27,53.5,27H51c-0.6,0-1,0.4-1,1v9h2V34z M52,29h1.5c0.8,0,1.5,0.7,1.5,1.5
		S54.3,32,53.5,32H52V29z"/>
	<polygon points="43,33 46,33 46,37 48,37 48,27 46,27 46,31 43,31 43,27 41,27 41,37 43,37 	"/>
	<path d="M36.3,20.7l1.4-1.4L33.4,15l4.3-4.3l-1.4-1.4l-5,5c-0.4,0.4-0.4,1,0,1.4L36.3,20.7z"/>
	<path d="M51.7,20.7l5-5c0.4-0.4,0.4-1,0-1.4l-5-5l-1.4,1.4l4.3,4.3l-4.3,4.3L51.7,20.7z"/>
	<path d="M44,10c1.1,0,2,0.9,2,2s-0.9,2-2,2c-0.6,0-1,0.4-1,1v2h2v-1.1c1.7-0.4,3-2,3-3.9c0-2.2-1.8-4-4-4s-4,1.8-4,4h2
		C42,10.9,42.9,10,44,10z"/>
	<rect x="43" y="19" width="2" height="2"/>
</g>
</svg>
